<svg xmlns="http://www.w3.org/2000/svg" viewBox="0 0 187.99988 71.59961"><title>GEIST</title><path d="M10,20.01453H9.99976L10,20.01477v31.5705a10,10,0,1,0,20,0V40.80011H19.99976v-10h20V51.58527H40a20,20,0,0,1-40,0V20.01477l.00024-.00024H0a20,20,0,0,1,40,0H30a10,10,0,0,0-20,0ZM49.99976,5.80011v65H81.99988v-10H59.99976v-20H80v-10H59.99976v-20H81.99988v-10H49.99976ZM91.99988,70.80005h10V.8h-10Zm85-69.99994V.8h-10V.80011h-11v10h11v60h10v-60h11v-10ZM132.00024,10a10.01177,10.01177,0,0,1,10,10h10a20,20,0,0,0-40,0c0,9.57129,6.96289,17.27539,18.626,20.60742,2.668.7627,11.374,3.8086,11.374,10.99219a10,10,0,0,1-20,0h-10a20,20,0,0,0,40,0c0-9.57129-6.96289-17.27441-18.626-20.60742-2.66895-.7627-11.374-3.80762-11.374-10.99219A10.01177,10.01177,0,0,1,132.00024,10Z"/></svg>