<svg xmlns="http://www.w3.org/2000/svg" viewBox="0 0 1920 1080"><title>Mask</title><path fill="#aaaaaa" d="M0,0V1080H1920V0ZM571.24774,1017.84369a14.17315,14.17315,0,0,1-14.17322,14.17316H63.03967a14.17315,14.17315,0,0,1-14.17321-14.17316V619.16675a14.17323,14.17323,0,0,1,14.17321-14.17322H557.07452a14.17324,14.17324,0,0,1,14.17322,14.17322Zm0-555.45148a14.17324,14.17324,0,0,1-14.17322,14.17322H63.03967a14.17323,14.17323,0,0,1-14.17321-14.17322V63.71527A14.17325,14.17325,0,0,1,63.03967,49.542H557.07452a14.17325,14.17325,0,0,1,14.17322,14.17328Zm650.64874,555.45148a14.173,14.173,0,0,1-14.17309,14.17316H713.68854a14.17315,14.17315,0,0,1-14.17322-14.17316V619.16675a14.17324,14.17324,0,0,1,14.17322-14.17322h494.03485a14.17313,14.17313,0,0,1,14.17309,14.17322Zm0-555.45148a14.17313,14.17313,0,0,1-14.17309,14.17322H713.68854a14.17324,14.17324,0,0,1-14.17322-14.17322V63.71527A14.17325,14.17325,0,0,1,713.68854,49.542h494.03485a14.17314,14.17314,0,0,1,14.17309,14.17328Zm650.64893,555.45148a14.17315,14.17315,0,0,1-14.17322,14.17316H1364.3374a14.17326,14.17326,0,0,1-14.17334-14.17316V619.16675a14.17335,14.17335,0,0,1,14.17334-14.17322h494.03479a14.17324,14.17324,0,0,1,14.17322,14.17322Zm0-555.45148a14.17324,14.17324,0,0,1-14.17322,14.17322H1364.3374a14.17335,14.17335,0,0,1-14.17334-14.17322V63.71527A14.17336,14.17336,0,0,1,1364.3374,49.542h494.03479a14.17325,14.17325,0,0,1,14.17322,14.17328Z"/></svg>
